<svg id="hockey-rink" enable-background="new 0 0 512 512" viewBox="0 0 512 512" xmlns="http://www.w3.org/2000/svg"><g><g><path d="m117.768 134.898c-19.891 0-36.073 16.183-36.073 36.074s16.183 36.073 36.073 36.073c19.906 0 36.102-16.183 36.102-36.073 0-19.891-16.196-36.074-36.102-36.074zm0 57.148c-11.62 0-21.073-9.453-21.073-21.073s9.454-21.074 21.073-21.074c11.635 0 21.102 9.454 21.102 21.074s-9.467 21.073-21.102 21.073z"/><path d="m117.768 304.954c-19.891 0-36.073 16.183-36.073 36.073 0 19.892 16.183 36.074 36.073 36.074 19.906 0 36.102-16.183 36.102-36.074 0-19.89-16.196-36.073-36.102-36.073zm0 57.148c-11.62 0-21.073-9.454-21.073-21.074s9.454-21.073 21.073-21.073c11.635 0 21.102 9.453 21.102 21.073s-9.467 21.074-21.102 21.074z"/><path d="m394.203 207.046c19.892 0 36.074-16.183 36.074-36.073 0-19.892-16.183-36.074-36.074-36.074s-36.073 16.183-36.073 36.074c0 19.89 16.183 36.073 36.073 36.073zm0-57.148c11.62 0 21.074 9.454 21.074 21.074s-9.454 21.073-21.074 21.073-21.073-9.453-21.073-21.073 9.453-21.074 21.073-21.074z"/><path d="m394.203 377.102c19.892 0 36.074-16.183 36.074-36.074s-16.183-36.073-36.074-36.073-36.073 16.183-36.073 36.073c0 19.891 16.183 36.074 36.073 36.074zm0-57.148c11.62 0 21.074 9.453 21.074 21.073s-9.454 21.074-21.074 21.074-21.073-9.454-21.073-21.074 9.453-21.073 21.073-21.073z"/><path d="m467.196 92.632h-337.919c-4.142 0-7.5 3.357-7.5 7.5s3.358 7.5 7.5 7.5h48.286v296.736h-119.504v-111.301c17.264-3.492 30.302-18.791 30.302-37.082 0-18.277-13.039-33.564-30.302-37.053v-111.3h36.579c4.142 0 7.5-3.357 7.5-7.5s-3.358-7.5-7.5-7.5h-49.834c-24.705 0-44.804 20.099-44.804 44.806v237.125c0 24.706 20.099 44.806 44.804 44.806h335.084c4.143 0 7.5-3.357 7.5-7.5s-3.357-7.5-7.5-7.5h-45.479v-296.737h119.504v111.301c-17.264 3.489-30.303 18.776-30.303 37.053 0 18.291 13.039 33.59 30.303 37.082v111.301h-39.385c-4.143 0-7.5 3.357-7.5 7.5s3.357 7.5 7.5 7.5h52.668c24.705 0 44.804-20.1 44.804-44.806v-237.125c0-24.707-20.099-44.806-44.804-44.806zm-218.71 188.84c-10.995-3.248-19.044-13.441-19.044-25.487 0-12.032 8.05-22.214 19.044-25.459zm15-50.948c11.01 3.243 19.072 13.426 19.072 25.461 0 12.048-8.062 22.243-19.072 25.489zm-70.923-122.892h55.923v107.5c-19.338 3.542-34.044 20.507-34.044 40.854 0 20.361 14.706 37.338 34.044 40.883v107.5h-55.923zm-119.202 148.353c0 9.96-6.402 18.451-15.302 21.563v-43.1c8.9 3.11 15.302 11.59 15.302 21.537zm-58.361 118.578v-237.125c0-15.848 12.434-28.843 28.059-29.75v296.626c-15.625-.908-28.059-13.903-28.059-29.751zm304.409 29.805h-55.923v-107.499c19.354-3.543 34.072-20.521 34.072-40.883 0-20.348-14.718-37.314-34.072-40.855v-107.499h55.923zm119.201-148.383c0-9.947 6.402-18.428 15.303-21.536v43.1c-8.9-3.112-15.303-11.604-15.303-21.564zm58.39 118.578c0 15.858-12.449 28.86-28.087 29.753v-296.63c15.638.892 28.087 13.894 28.087 29.752z"/></g></g></svg>
