<svg version="1.1" id="ticket" xmlns="http://www.w3.org/2000/svg" xmlns:xlink="http://www.w3.org/1999/xlink" x="0px" y="0px" viewBox="0 0 512 512" style="enable-background:new 0 0 512 512;" xml:space="preserve">
<g>
	<g>
		<g>
			<path d="M505.323,195.712c4.032-1.621,6.677-5.547,6.677-9.899v-68.48c0-5.888-4.779-10.667-10.667-10.667H10.667
				C4.779,106.667,0,111.445,0,117.333v68.48c0,4.352,2.645,8.277,6.677,9.899c21.525,8.64,35.989,32.875,35.989,60.288
				s-14.464,51.648-35.989,60.288C2.645,317.909,0,321.835,0,326.187v68.48c0,5.888,4.779,10.667,10.667,10.667h490.667
				c5.888,0,10.667-4.779,10.667-10.667v-68.48c0-4.352-2.645-8.277-6.677-9.899c-21.525-8.64-35.989-32.875-35.989-60.288
				S483.797,204.352,505.323,195.712z M448,256c0,33.237,16.875,63.211,42.667,76.949V384h-128v-10.667
				c0-5.888-4.779-10.667-10.667-10.667c-5.888,0-10.667,4.779-10.667,10.667V384h-320v-51.051C47.125,319.211,64,289.259,64,256
				s-16.875-63.211-42.667-76.949V128h320v10.667c0,5.888,4.779,10.667,10.667,10.667c5.888,0,10.667-4.779,10.667-10.667V128h128
				v51.051C464.875,192.811,448,222.763,448,256z"></path>
      <path d="M352,170.667c-5.888,0-10.667,4.779-10.667,10.667v21.333c0,5.888,4.779,10.667,10.667,10.667
				c5.888,0,10.667-4.779,10.667-10.667v-21.333C362.667,175.445,357.888,170.667,352,170.667z"></path>
      <path d="M352,234.667c-5.888,0-10.667,4.779-10.667,10.667v21.333c0,5.888,4.779,10.667,10.667,10.667
				c5.888,0,10.667-4.779,10.667-10.667v-21.333C362.667,239.445,357.888,234.667,352,234.667z"></path>
      <path d="M352,298.667c-5.888,0-10.667,4.779-10.667,10.667v21.333c0,5.888,4.779,10.667,10.667,10.667
				c5.888,0,10.667-4.779,10.667-10.667v-21.333C362.667,303.445,357.888,298.667,352,298.667z"></path>
      <path d="M224,320H117.333c-5.888,0-10.667,4.779-10.667,10.667s4.779,10.667,10.667,10.667H224
				c5.888,0,10.667-4.779,10.667-10.667S229.888,320,224,320z"></path>
      <path d="M266.667,277.333H117.333c-5.888,0-10.667,4.779-10.667,10.667s4.779,10.667,10.667,10.667h149.333
				c5.888,0,10.667-4.779,10.667-10.667S272.555,277.333,266.667,277.333z"></path>
		</g>
	</g>
</g>
  <g>
</g>
  <g>
</g>
  <g>
</g>
  <g>
</g>
  <g>
</g>
  <g>
</g>
  <g>
</g>
  <g>
</g>
  <g>
</g>
  <g>
</g>
  <g>
</g>
  <g>
</g>
  <g>
</g>
  <g>
</g>
  <g>
</g>
</svg>
