<?xml version="1.0" encoding="utf-8"?>
<!-- Generator: Adobe Illustrator 23.0.4, SVG Export Plug-In . SVG Version: 6.00 Build 0)  -->
<svg version="1.1" id="Layer_1" xmlns="http://www.w3.org/2000/svg" xmlns:xlink="http://www.w3.org/1999/xlink" x="0px" y="0px"
	 viewBox="0 0 128 128" style="enable-background:new 0 0 128 128;" xml:space="preserve">
<style type="text/css">
	.st0{fill:#1C284B;}
	.st1{fill:#FFDB00;}
</style>
<g>
	<circle class="st0" cx="64" cy="64" r="64"/>
</g>
<path class="st1" d="M64,46.1c-9.9,0-17.9,8-17.9,17.9s8,17.9,17.9,17.9S82,73.9,82,64S73.9,46.1,64,46.1z M64,75.7
	c-6.4,0-11.7-5.2-11.7-11.7S57.6,52.3,64,52.3c6.4,0,11.7,5.2,11.7,11.7S70.4,75.7,64,75.7L64,75.7z M86.9,45.3
	c0,2.3-1.9,4.2-4.2,4.2c-2.3,0-4.2-1.9-4.2-4.2s1.9-4.2,4.2-4.2S86.9,43,86.9,45.3z M98.8,49.6C98.5,44,97.2,39,93.1,34.9
	c-4.1-4.1-9.1-5.4-14.7-5.7c-5.8-0.3-23.1-0.3-28.9,0C44,29.5,39,30.8,34.9,34.9s-5.4,9.1-5.7,14.7c-0.3,5.8-0.3,23.1,0,28.9
	c0.3,5.6,1.5,10.6,5.7,14.7s9.1,5.4,14.7,5.7c5.8,0.3,23.1,0.3,28.9,0c5.6-0.3,10.6-1.5,14.7-5.7c4.1-4.1,5.4-9.1,5.7-14.7
	C99.1,72.7,99.1,55.3,98.8,49.6L98.8,49.6z M91.3,84.6c-1.2,3.1-3.6,5.4-6.7,6.7C80,93.1,69.1,92.7,64,92.7s-16,0.4-20.6-1.4
	c-3.1-1.2-5.4-3.6-6.7-6.7C34.9,80,35.3,69.1,35.3,64s-0.4-16,1.4-20.6c1.2-3.1,3.6-5.4,6.7-6.7c4.6-1.8,15.5-1.4,20.6-1.4
	s16-0.4,20.6,1.4c3.1,1.2,5.4,3.6,6.7,6.7c1.8,4.6,1.4,15.5,1.4,20.6S93.1,80,91.3,84.6z"/>
</svg>
