<?xml version="1.0" encoding="utf-8"?>
<!-- Generator: Adobe Illustrator 18.1.1, SVG Export Plug-In . SVG Version: 6.00 Build 0)  -->
<svg version="1.1" id="Layer_1" xmlns="http://www.w3.org/2000/svg" xmlns:xlink="http://www.w3.org/1999/xlink" x="0px" y="0px"
	 viewBox="-415 217 128 128" enable-background="new -415 217 128 128" xml:space="preserve">
<g>
	<circle fill="#FFDB00" cx="-351" cy="281" r="64"/>
</g>
<path fill="#1C284B" d="M-311.8,265c0,0-0.8-5.5-3.2-7.9c-3-3.2-6.5-3.2-8-3.4c-11.2-0.8-28-0.8-28-0.8h0c0,0-16.8,0-28,0.8
	c-1.6,0.2-5,0.2-8,3.4c-2.4,2.4-3.2,7.9-3.2,7.9s-0.8,6.5-0.8,12.9v6.1c0,6.5,0.8,12.9,0.8,12.9s0.8,5.5,3.2,7.9
	c3,3.2,7,3.1,8.8,3.4c6.4,0.6,27.2,0.8,27.2,0.8s16.8,0,28-0.8c1.6-0.2,5-0.2,8-3.4c2.4-2.4,3.2-7.9,3.2-7.9s0.8-6.5,0.8-12.9V278
	C-311,271.5-311.8,265-311.8,265 M-360.3,292.4l0-24.6l23.6,12.3L-360.3,292.4z"/>
</svg>
