<?xml version="1.0" encoding="utf-8"?>
<svg version="1.1" xmlns="http://www.w3.org/2000/svg" xmlns:xlink="http://www.w3.org/1999/xlink" x="0px" y="0px"
     viewBox="0 0 1024 576" style="enable-background:new 0 0 1024 576;" xml:space="preserve">
<style type="text/css">
	.st0{fill:#FFFFFF;}
	.st1{fill:#12284C;}
</style>
  <rect x="-29" y="-21" class="st0" width="1069" height="613"/>
  <g>
	<g>
		<path class="st0" d="M56.38,314.46h8.29c7.01,21.04,19.55,31.87,36.34,31.87c14.02,0,24.65-8.92,24.65-20.82
			c0-31.67-68.21-30.6-68.21-72.68c0-20.4,17.85-34.63,43.14-34.63c16.36,0,29.11,5.53,32.3,5.53c1.49,0,2.76-0.43,4.68-2.34h4.46
			l4.04,34.42h-8.5c-4.68-17.21-18.28-28.48-34.64-28.48c-11.9,0-20.82,6.37-20.82,14.66c0,19.55,35.28,23.16,59.08,46.96
			c8.71,8.71,12.11,17.85,12.11,28.05c0,22.1-19.97,39.52-45.26,39.52c-17,0-32.51-6.8-36.34-6.8c-1.91,0-3.4,1.06-4.46,3.4h-5.53
			L56.38,314.46L56.38,314.46z"/>
    <path class="st0" d="M258.04,304.48l9.99,24.65c4.25,10.41,2.34,16.15-10.62,16.15h-7.44v8.29h69.06v-8.29
			c-11.05-0.85-15.72-5.1-21.25-19.13l-42.5-107.95h-31.45l2.34,6.16l-36.34,101.36c-5.31,14.87-10.62,19.55-20.82,19.55h-3.19v8.29
			h56.31v-8.29h-2.76c-20.4,0-20.61-5.1-16.79-15.94l8.92-24.86H258.04L258.04,304.48z M253.15,292.79h-37.4l17.85-49.73
			L253.15,292.79L253.15,292.79z"/>
    <path class="st0" d="M373.64,248.59h-0.43l-4.68,75.65c-0.85,14.03-0.64,20.83,17.42,21.04v8.29h-47.17v-8.29
			c16.57-0.21,17-4.89,18.06-22.53l4.67-76.92c0.64-10.84,0-15.51-14.24-16.15v-8.29h44.84l41.44,89.25l39.74-89.25h45.69v8.29
			c-15.3,0.85-16.36,0.85-15.3,16.15l5.1,78.41c1.06,17.85,1.7,19.76,18.7,21.04v8.29h-66.94v-8.29h3.61c8.93,0,16.36,0,16.36-13.81
			c0-3.4-0.21-6.8-0.42-9.99l-4.89-75.44h-0.42l-47.6,107.53h-5.1L373.64,248.59L373.64,248.59z"/>
    <path class="st0" d="M558.93,221.39h67.57v8.29h-3.61c-11.48,0-16.15,4.89-16.15,15.94v84.15c0,10.41,3.62,15.51,16.57,15.51h3.19
			v8.29h-67.57v-8.29h2.98c11.26,0,15.51-5.31,15.51-14.66v-85c0-11.05-3.82-15.94-15.72-15.94h-2.76V221.39L558.93,221.39z"/>
    <path class="st0" d="M690.67,328.06c0,12.96,4.04,17.22,21.04,17.22v8.29h-51.42v-8.29h1.28c12.96,0,16.15-4.68,16.15-13.39
			v-97.53c-4.67-3.19-10.41-4.68-17-4.68v-8.29h43.78l86.7,90.52v-64.18c0-15.3-3.19-18.06-20.19-18.06h-2.13v-8.29h54.83v8.29
			h-2.12c-13.18,0-17.43,2.76-17.43,10.84V354.2h-11.69L690.67,247.74V328.06L690.67,328.06z"/>
    <path class="st0" d="M923.78,304.48l9.99,24.65c4.25,10.41,2.34,16.15-10.63,16.15h-7.44v8.29h69.06v-8.29
			c-11.05-0.85-15.73-5.1-21.25-19.13l-42.5-107.95h-31.45l2.34,6.16l-36.34,101.36c-5.31,14.87-10.62,19.55-20.82,19.55h-3.19v8.29
			h56.31v-8.29h-2.76c-20.4,0-20.61-5.1-16.79-15.94l8.93-24.86H923.78L923.78,304.48z M918.89,292.79h-37.4l17.85-49.73
			L918.89,292.79L918.89,292.79z"/>
	</g>
    <g>
		<path class="st1" d="M56.38,314.46h8.29c7.01,21.04,19.55,31.87,36.34,31.87c14.02,0,24.65-8.92,24.65-20.82
			c0-31.67-68.21-30.6-68.21-72.68c0-20.4,17.85-34.63,43.14-34.63c16.36,0,29.11,5.53,32.3,5.53c1.49,0,2.76-0.43,4.68-2.34h4.46
			l4.04,34.42h-8.5c-4.68-17.21-18.28-28.48-34.64-28.48c-11.9,0-20.82,6.37-20.82,14.66c0,19.55,35.28,23.16,59.08,46.96
			c8.71,8.71,12.11,17.85,12.11,28.05c0,22.1-19.97,39.52-45.26,39.52c-17,0-32.51-6.8-36.34-6.8c-1.91,0-3.4,1.06-4.46,3.4h-5.53
			L56.38,314.46L56.38,314.46z"/>
      <path class="st1" d="M258.04,304.48l9.99,24.65c4.25,10.41,2.34,16.15-10.62,16.15h-7.44v8.29h69.06v-8.29
			c-11.05-0.85-15.72-5.1-21.25-19.13l-42.5-107.95h-31.45l2.34,6.16l-36.34,101.36c-5.31,14.87-10.62,19.55-20.82,19.55h-3.19v8.29
			h56.31v-8.29h-2.76c-20.4,0-20.61-5.1-16.79-15.94l8.92-24.86H258.04L258.04,304.48z M253.15,292.79h-37.4l17.85-49.73
			L253.15,292.79L253.15,292.79z"/>
      <path class="st1" d="M373.64,248.59h-0.43l-4.68,75.65c-0.85,14.03-0.64,20.83,17.42,21.04v8.29h-47.17v-8.29
			c16.57-0.21,17-4.89,18.06-22.53l4.67-76.92c0.64-10.84,0-15.51-14.24-16.15v-8.29h44.84l41.44,89.25l39.74-89.25h45.69v8.29
			c-15.3,0.85-16.36,0.85-15.3,16.15l5.1,78.41c1.06,17.85,1.7,19.76,18.7,21.04v8.29h-66.94v-8.29h3.61c8.93,0,16.36,0,16.36-13.81
			c0-3.4-0.21-6.8-0.42-9.99l-4.89-75.44h-0.42l-47.6,107.53h-5.1L373.64,248.59L373.64,248.59z"/>
      <path class="st1" d="M558.93,221.39h67.57v8.29h-3.61c-11.48,0-16.15,4.89-16.15,15.94v84.15c0,10.41,3.62,15.51,16.57,15.51h3.19
			v8.29h-67.57v-8.29h2.98c11.26,0,15.51-5.31,15.51-14.66v-85c0-11.05-3.82-15.94-15.72-15.94h-2.76V221.39L558.93,221.39z"/>
      <path class="st1" d="M690.67,328.06c0,12.96,4.04,17.22,21.04,17.22v8.29h-51.42v-8.29h1.28c12.96,0,16.15-4.68,16.15-13.39
			v-97.53c-4.67-3.19-10.41-4.68-17-4.68v-8.29h43.78l86.7,90.52v-64.18c0-15.3-3.19-18.06-20.19-18.06h-2.13v-8.29h54.83v8.29
			h-2.12c-13.18,0-17.43,2.76-17.43,10.84V354.2h-11.69L690.67,247.74V328.06L690.67,328.06z"/>
      <path class="st1" d="M923.78,304.48l9.99,24.65c4.25,10.41,2.34,16.15-10.63,16.15h-7.44v8.29h69.06v-8.29
			c-11.05-0.85-15.73-5.1-21.25-19.13l-42.5-107.95h-31.45l2.34,6.16l-36.34,101.36c-5.31,14.87-10.62,19.55-20.82,19.55h-3.19v8.29
			h56.31v-8.29h-2.76c-20.4,0-20.61-5.1-16.79-15.94l8.93-24.86H923.78L923.78,304.48z M918.89,292.79h-37.4l17.85-49.73
			L918.89,292.79L918.89,292.79z"/>
	</g>
</g>
</svg>
