<?xml version="1.0" encoding="utf-8"?>
<!-- Generator: Adobe Illustrator 18.1.1, SVG Export Plug-In . SVG Version: 6.00 Build 0)  -->
<svg version="1.1" xmlns="http://www.w3.org/2000/svg" xmlns:xlink="http://www.w3.org/1999/xlink" x="0px" y="0px"
	 viewBox="0 0 3889.6 3889.6" enable-background="new 0 0 3889.6 3889.6" xml:space="preserve">
<g>
	<g>
		<path fill="#2D3F54" d="M1421.7,3223l-0.4,0.9l-62.2,44.9l16.3,7.5l49.7,23.3l63.8-45.9l42,19.2l0.5,1.4l-156.7,113.4l-0.5-0.2
			l-42.7-20.1c0.5-1.1,20.9-16,61.1-44.8l0.2-0.5L1327,3292l-62.9,45.2l-42.9-19.6c4.3-3.8,26.9-20.4,67.8-49.7l89.8-64.5
			L1421.7,3223z"/>
	</g>
	<g>
		<path fill="#2D3F54" d="M1637.7,3291.8l61.4,16.7c19.1,5.2,28.7,14.2,28.8,27l-0.4,3.6l-0.3,1c-2,7.4-11.8,19.4-29.5,36.1
			c-34.1,34.6-53.3,53.6-57.6,57.1c-23.5,16.6-47.6,21.6-72.1,14.9l-72.4-19.2c-14.1-3.8-22.3-10.9-24.6-21.1
			c-0.5-1.9-0.4-4.2,0.3-6.8l0.6-2c2.2-7.9,12.7-20.5,31.5-37.7c30.7-30.7,49.2-48.7,55.7-54
			C1583.7,3289.5,1609.9,3284.3,1637.7,3291.8z M1540.4,3387.1c-1.1,4.2,0.8,7.9,6,11.2l36.1,9.8c14.9,4.1,31.6-4.9,49.9-26.8
			c16.5-15.1,25.5-25.1,26.8-29.9c1.5-5.6-3-9.9-13.6-12.7l-20.8-5.7c-20.7-5.7-39.9,2.4-57.7,24.2
			C1550.7,3372.2,1541.8,3382.2,1540.4,3387.1z"/>
	</g>
	<g>
		<path fill="#2D3F54" d="M1857.3,3324.4l140.3,14.7l-0.1,1l-74.3,34.5l-76-8c-16.5-1.7-33.3,10.6-50.3,37
			c-12.3,15.1-18.7,25.3-19.2,30.5c0.2,6.2,3.3,9.6,9.2,10.3l1.5,0.7l6.2,0.1l94.9,10l0.5,0.6l0.5,0.1c-18,25.9-27.4,39-28.4,39.3
			l-89.8-9.4l-6.7-0.2l-5.5-1.1l-21.4-2.3c-14.5-1.5-23.1-7.2-25.5-17.1c-0.6-1.1-0.8-3.9-0.7-8.3c1-9,9.5-23.6,25.7-43.7l45.1-61.3
			C1805.2,3330.6,1829.9,3321.5,1857.3,3324.4z"/>
	</g>
	<g>
		<path fill="#2D3F54" d="M2154.3,3318.4l45.6-2.5l0.5,0.5l0.5,0c-22.7,47.4-35.3,73.3-37.9,77.6c-4.2,6.4-12.2,9.9-24.1,10.6
			l-1.5,0.1l0,0.5c8.6,1.6,13.1,4.3,13.3,8l0.2,3.1c0.1,2.1-4,11.3-12.4,27.4c-13.6,27.8-21.3,43-23.2,45.5l-47.7,2.6l22.2-44.9
			c2.2-4.3,3.2-8.1,3-11.5l-0.1-2c-0.3-4.9-3.9-7.7-10.7-8.2l-54.3,3c-22,45.5-33.6,68.4-34.8,68.7l-46.6,2.5
			c0.5-2.4,18.6-38.9,54.2-109.3c20.4-41.3,31.3-62.8,33-64.5l46.6-2.5l0.1,1l-34.3,69.2l51.7-2.8c16.4-0.9,26.2-6.7,29.4-17.5
			C2143.7,3338.2,2152.8,3320.1,2154.3,3318.4z"/>
	</g>
	<g>
		<path fill="#2D3F54" d="M2442.5,3252.8l0.2,1l-59.5,56.3l-96.2,21.3l-8.5,28.2l66.1-14.6l0.2,1c-31.4,29.1-48,44.2-49.9,45.2
			l-28,6.2c-4.1,11-6.9,20-8.2,27l142.3-31.5l0.6,0.4l0.5-0.1c-8.3,27.4-13.2,42.5-14.7,45.3l-188.9,41.8l-0.6-0.4l-0.5,0.1
			l57.2-185.5L2442.5,3252.8z"/>
	</g>
	<g>
		<path fill="#2D3F54" d="M2514.9,3209.9l1.3,0.6c-7.8,56.7-11.3,85.9-10.6,87.8l0.6,1.4c2.1,2.5,4.7,3.1,7.9,1.8l11.9-4.8l24.9-9.5
			c12.2-4.9,19.9-14.1,23.2-27.6c5.8-48.1,9.1-73.8,9.9-77l6.2-2.5l36.5-15.2l0.7,0.3c-7.4,66-11.7,101.7-12.9,106.9
			c-8.6,26-24.3,43.5-46.9,52.6l-2.9,1.1l-6.7,48l-0.3,0.7l-0.5,0.2l-43.6,18.1l-0.7-0.3l5.7-47.7l-0.2-0.5l-23.8,9.6
			c-14.6,4.8-25,4-31.3-2.3c-1.6-1.2-2.9-3.1-3.9-5.6l-0.4-1c-2.8-6.9-1.9-22.6,2.7-47l9.7-70.8L2514.9,3209.9z"/>
	</g>
</g>
<g>
	<g>
		<path fill="#2D3F54" d="M820.6,886.5l96.9-107.6l0.8,0.7L904,859.1l-50.6,56.2c-10.1,11.2-12.8,27.4-8,48.7l0.8,0.7l28.1-32
			l18.9-21c14.2-15.8,25.6-22.6,34-20.2c2.8,0.6,5.6,2.2,8.5,4.8c5.4,4.8,11.5,21.3,18.4,49.5c2.9,20.5,1.4,37.3-4.5,50.4
			c-5.3,12.2-11.1,21.8-17.3,28.8l-51.3,57l-29.6,32.1l-0.8-0.7l16.4-82.6l31.7-35.2c14.4-16,17.9-32.6,10.6-49.9l-52.4,58.1
			c-10.3,11.4-19.8,16.2-28.7,14.3l-7.4-3.8c-7.6-6.8-14.7-28.6-21.5-65.2C798.1,924.5,805.1,903.7,820.6,886.5z"/>
	</g>
	<g>
		<path fill="#2D3F54" d="M1013.7,716.1l114.6-91.1l0.7,0.8l-29.9,79.5l-62.1,49.3c-13.5,10.7-16.9,32-10.3,64
			c1.9,20.1,4.6,32.3,8,36.5c4.7,4.4,9.4,4.7,14.3,0.9l1.6-0.6l4.7-4.4l77.5-61.6l0.8,0.1l0.4-0.3c5.5,32.2,8.1,48.8,7.6,49.7
			l-73.3,58.3l-5.1,4.7l-4.9,3.2l-17.5,13.9c-11.9,9.4-22.3,11.4-31.4,5.9c-1.2-0.4-3.4-2.3-6.5-5.7c-5.9-7.4-10.1-24.4-12.7-51.1
			l-11.1-78.2C979.7,758.6,991.4,733.9,1013.7,716.1z"/>
	</g>
	<g>
		<path fill="#2D3F54" d="M1337.3,533.4l0.4,1l-7.1,79.3l16.9-7.7l52-23.2l7.4-81.2l43.6-19.9l1.4,0.5l-17.6,199.9l-0.5,0.2
			l-44.8,19.8c-0.5-1.1,1.6-27.3,6.4-78.4l-0.2-0.5l-68.3,31.2l-7.4,80l-44.6,20.3c-0.1-5.9,2.3-34.9,7.1-86.9l10.5-114.2
			L1337.3,533.4z"/>
	</g>
	<g>
		<path fill="#2D3F54" d="M1583.2,454.1l63.8-17c19.9-5.3,33.2-2.2,39.9,9.2l1.5,3.5l0.3,1c2,7.6-0.5,23.6-7.6,47.8
			c-12.5,48.8-19.8,75.9-21.9,81.3c-12.4,27.2-31.4,44.2-56.9,51l-74.9,20.5c-14.7,3.9-25.7,1.9-33-6.1c-1.5-1.4-2.6-3.5-3.3-6.3
			l-0.5-2.1c-2.2-8.2,0.7-25,8.7-50.2c11.5-43.5,18.8-69.4,21.8-77.4C1533.6,480.2,1554.4,461.8,1583.2,454.1z M1545.7,590.3
			c1.2,4.4,4.9,6.7,11.2,6.9l37.5-10c15.5-4.1,25.8-20.8,30.7-50.1c6.9-22.1,9.8-35.7,8.4-40.8c-1.6-5.8-7.8-7.3-18.8-4.4l-21.6,5.8
			c-21.5,5.7-34.6,23-39.1,51.7C1547.2,571.6,1544.4,585.2,1545.7,590.3z"/>
	</g>
	<g>
		<path fill="#2D3F54" d="M1833.1,419.1l0.1,1.1l-32.8,72.6l18.6-1.7l56.7-4.8l33.7-74.2l47.7-4.5l1.2,1L1876,591.5l-0.5,0l-48.8,4
			c-0.1-1.2,10.5-25.2,31.8-71.9l-0.1-0.5l-74.7,7l-33.2,73.2l-48.8,4.6c1.9-5.6,13.6-32.2,35.3-79.8l47.4-104.4L1833.1,419.1z"/>
	</g>
	<g>
		<path fill="#2D3F54" d="M2238.4,436l-0.1,1.1l-75.9,38.2l-101.9-7.5l-16.8,25.5l70.1,5.1l-0.1,1.1c-39.9,19.6-60.9,29.6-63,30.1
			l-29.7-2.2c-7.4,9.7-12.8,17.8-16.2,24.4l150.8,11.1l0.5,0.6l0.5,0c-16.4,24.8-25.8,38.3-28.1,40.6l-200.1-14.7l-0.5-0.6l-0.5,0
			l112.1-167.4L2238.4,436z"/>
	</g>
	<g>
		<path fill="#2D3F54" d="M2414.2,491.4c17.6,4.4,28.1,11.7,31.3,22c0.8,2.8,0.8,5.8,0,8.8l-0.3,1c-2,8.1-12.3,21.1-31,38.9
			c-47.8,51.4-76,81.2-84.6,89.3l-48-11.9l0.1-0.5l89.1-94.2c2.5-2.8,4.2-5.7,4.9-8.7l0.4-1.5c1.1-4.5-1.6-7.5-8.2-9.1l-56.3-13.9
			c-68.4,72.4-103.4,108.9-104.9,109.5l-47-11.6c0.3-1,23.3-25.5,69.1-73.4l70.2-73.1L2414.2,491.4z"/>
	</g>
	<g>
		<path fill="#2D3F54" d="M2722.9,625.1l-0.4,1l-84.3,10.8l-93.6-41l-24.3,18.4l64.4,28.2l-0.4,1c-44.1,5.2-67.3,7.7-69.5,7.4
			l-27.3-11.9c-10.2,6.7-18,12.6-23.4,17.6l138.5,60.6l0.3,0.7l0.5,0.2c-23.7,17.9-37,27.6-40,29l-183.8-80.4l-0.3-0.7l-0.5-0.2
			L2540,545.1L2722.9,625.1z"/>
	</g>
	<g>
		<path fill="#2D3F54" d="M2964.5,808.8c12.9,9.2,18.1,19.2,15.7,30.2l-2.8,5.8c-5,7-22.5,16.9-52.6,29.8
			c-44.9,22-78.5,38-100.7,47.8l-26.9-19.2l-13.3-8.8l-0.1-0.7c82.2-38.3,123.8-58.1,124.7-59.5l1.4-1c2.5-3.5,0.9-7.4-4.7-11.8
			l-41.6-29.7c-88.3,41-133.5,61.7-135.8,62.1l-40.3-28.7c1.9-1.6,31.8-15.4,89.6-41.4l45.7-21l-54.6-38.9
			c-1.2-0.1-36.5,16.1-105.9,48.7c-18.7,8.6-28.7,13-30.2,13.1l-36.7-25.5l-2.6-1.8l-0.1-0.7l-0.4-0.3l181.6-84.3L2964.5,808.8z"/>
	</g>
	<g>
		<path fill="#2D3F54" d="M3086,946.1l98.4,106.2l-0.8,0.7l-77.9-21.4l-51.4-55.4c-10.3-11.1-26.2-15.2-47.7-12.3l-0.8,0.7
			l29.3,30.9l19.2,20.7c14.5,15.6,20.2,27.5,17.1,35.7c-0.9,2.7-2.7,5.4-5.6,8.1c-5.3,4.9-22.3,9.5-51,13.9c-20.7,1-37.3-2-49.8-9
			c-11.7-6.3-20.7-13-27.1-19.8l-52.1-56.2l-29.3-32.4l0.8-0.7l80.8,23.8l32.2,34.7c14.6,15.7,30.9,20.8,48.8,15l-53.2-57.4
			c-10.4-11.3-14.3-21.2-11.7-29.8l4.4-7c7.5-6.9,29.8-12.1,66.9-15.6C3050.1,920.2,3070.2,929.2,3086,946.1z"/>
	</g>
</g>
<g>
	<g>
		<circle fill="#091E3B" cx="1955.7" cy="1944.3" r="1856.7"/>
	</g>
</g>
<g>
	<g>
		<path fill="#FFD100" d="M1955.7,3692.5c-964,0-1748.2-784.2-1748.2-1748.2S991.8,196.1,1955.7,196.1s1748.2,784.2,1748.2,1748.2
			S2919.7,3692.5,1955.7,3692.5z M1955.7,296.5c-908.6,0-1647.8,739.2-1647.8,1647.8c0,908.6,739.2,1647.8,1647.8,1647.8
			c908.6,0,1647.8-739.2,1647.8-1647.8C3603.5,1035.7,2864.3,296.5,1955.7,296.5z"/>
	</g>
</g>
<g>
	<g>
		<circle fill="#FFD100" cx="1955.7" cy="1944.3" r="1251"/>
	</g>
</g>
<g>
	<g>
		<circle fill="none" cx="1955.7" cy="1944.3" r="1241.4"/>
	</g>
</g>
<g>
	<g>
		<path fill="#FFD100" d="M3396.2,1771c-7.2,0-13.3-5.3-14.2-12.6c-26.8-220.9-106.2-435.6-229.6-621.1c-4.4-6.6-2.6-15.5,4-19.9
			c6.6-4.4,15.5-2.6,19.9,4c125.9,189.1,206.9,408.2,234.2,633.5c1,7.9-4.6,15-12.5,16C3397.3,1770.9,3396.8,1771,3396.2,1771z"/>
	</g>
</g>
<g>
	<g>
		<path fill="#FFD100" d="M509,1785.4c-0.5,0-1.1,0-1.6-0.1c-7.9-0.9-13.5-8-12.7-15.8c26.1-234.2,109.6-461.2,241.6-656.6
			c4.4-6.6,13.3-8.3,19.9-3.9c6.6,4.4,8.3,13.3,3.9,19.9c-129.4,191.6-211.3,414.2-236.9,643.7C522.4,1780,516.2,1785.4,509,1785.4z
			"/>
	</g>
</g>
<g>
	<g>
		<g>
			<path fill="#091E3B" d="M2388.4,2276.4c21.1-25.8,27.8-63.2,41.1-95.3c-25.8,33.7-46,68.9-70.9,100.5
				c-18.4,23.4-42.9,41.8-64.2,62.9c-60.3,59.6-86.9,134-92.6,218.3C2229.5,2444.2,2315.8,2365.2,2388.4,2276.4z"/>
		</g>
	</g>
	<g>
		<g>
			<path fill="#091E3B" d="M2507.8,1456.8c12.9-26.1,10-46-5.4-69.8c-66-102.1-162.7-183.3-200.9-306.3
				c-11.4,10.4-18.4,16.4-25,22.8c-71.3,68.2-77,73.9-27.2,160.6c61.9,107.7,133.5,209.7,204.7,320
				C2474.3,1535.3,2488.9,1495,2507.8,1456.8z"/>
		</g>
	</g>
	<g>
		<g>
			<path fill="#091E3B" d="M2162.1,1225.8c-15.8,36.2-36.3,71.2-46.5,108.9c-41.6,153.5,54.4,379.4,192,459.8
				c22.7,13.3,41.9,9,59.6-8.3c57.2-55.8,66.7-139.8,22-206c-77.2-114.4-168.7-219.8-216.3-352.6
				C2169.3,1227,2165.7,1226.4,2162.1,1225.8z"/>
		</g>
	</g>
	<g>
		<g>
			<path fill="#091E3B" d="M2571.8,1503.1c37.7-71.4,71.9-144.9,113.1-214.2c47.5-79.8,118-134.3,205-168.8
				c4.3-1.7,8.6-3.2,12.8-4.7c-12.6-14.3-25.5-28.4-38.7-42.2c-117.2,37.5-199.7,117.4-249.5,228.4c-42.7,95.1-72.9,195.8-108.6,294
				c4.1,1.9,8.3,3.8,12.4,5.7C2536.2,1568.6,2554.4,1536.1,2571.8,1503.1z"/>
		</g>
	</g>
	<g>
		<g>
			<path fill="#091E3B" d="M2611.4,1255.4c15.6-22.2,15.2-40.4,4.3-63.4c-36.8-78.1-72.2-156.9-110-239.4
				c-24.9,12.2-55.5,25.4-84.4,41.7c-82.9,46.8-88.2,57.4-35.6,138.9c49.8,77.2,108.3,148.9,165.1,225.8
				C2572,1322.3,2589.1,1287,2611.4,1255.4z"/>
		</g>
	</g>
	<g>
		<g>
			<path fill="#091E3B" d="M769.6,2212.6c33.1,37.3,74.4,39.7,124.1,12c-69.4,6.2-101.7-12.8-130.4-77.3
				c-38.5-86.5-51.1-179.1-60.5-271.9c-1.2,22.6-1.9,45.3-1.9,68.1c0,59.7,4.3,118.3,12.3,175.7c0.8,2,1.4,4,2.2,6
				C728.3,2156.7,747.1,2187.3,769.6,2212.6z"/>
		</g>
	</g>
	<g>
		<g>
			<path fill="#091E3B" d="M1145.5,2435.8c48.7-118.6,59.5-244.4,45.8-371.6c-3.9-36.4-14.5-72-22.1-108c-5.1-0.2-10.2-0.5-15.3-0.7
				c-17.9,43.3-34.2,87.4-54.2,129.7c-34,71.8-63.2,147.4-107.4,212.6c-66.4,98-163.8,101.1-237.8,9.8
				c20,66.3,45.4,130.2,75.6,191.4c8.3,0.4,16.9,0,25.9-1.4c68.1-10.7,127.4-40.6,166.3-97.3c33-48.1,58.9-101.6,83.4-154.8
				c14.7-31.9,20.7-67.8,31.8-106.1c6,83.3-28.6,205.5-77.2,277.2c-51.6,76.1-118.9,121.9-207.8,126c10.3,18.9,21,37.4,32.2,55.7
				c59.2,17,125.6,5,174.4-39.5C1095.5,2525.7,1126.8,2481.3,1145.5,2435.8z"/>
		</g>
	</g>
	<g>
		<g>
			<path fill="#091E3B" d="M3145.5,2317.7c-76,75.9-160.6,73-225.6-12.2c-31.2-40.9-56.1-87.6-78-134.4
				c-26.4-56.4-46-116-69.7-173.7c-6.1-14.9-16.5-28.1-26.7-45.1c-5,9-7,11.9-8.3,15c-1.8,4.2-3.6,8.6-4.7,13
				c-40.7,168.9-25.3,333,44.5,491.6c20.4,46.3,54.5,83.1,99.5,108.3c48.7,27.3,106.2,31.5,155.7,15.2
				c10.5-17.2,20.6-34.8,30.2-52.5c-91.7-1.7-161.2-46.7-213.8-124c-55.8-82-75.4-175.1-76.5-274.6c3.1,12.1,4.8,24.7,9.5,36.1
				c26.3,63.8,49.1,129.6,81.3,190.3c29.3,55.2,78.1,93.9,138.8,114.6c31.3,10.7,58.9,15.2,83.8,12.7
				c31.4-63.8,57.5-130.5,77.9-199.8C3157.7,2304.9,3151.8,2311.4,3145.5,2317.7z"/>
		</g>
	</g>
	<g>
		<g>
			<path fill="#091E3B" d="M2302.2,2123.9c-36.3,24.9-53.6,61.9-50.9,108c32.7-13.2,63.5-23,91.5-37.9c16.1-8.6,33.1-23,40.4-39
				c20.1-44.3,10.8-90.5-1.6-138.6C2385.8,2077,2341.2,2097.2,2302.2,2123.9z"/>
		</g>
	</g>
	<g>
		<g>
			<path fill="#091E3B" d="M3190.6,1860.9c-9.7,97.7-21.5,195.4-62,286.4c-28.7,64.5-61.1,83.5-130.5,77.3
				c49.7,27.7,91,25.3,124.1-12c22.5-25.3,41.2-56,54.2-87.3c18.8-45.5,30.1-92.5,37-140.2c0.4-13.8,0.8-27.6,0.8-41.5
				c0-64.9-4.9-128.6-14.4-190.8C3196.8,1788.9,3194.2,1825,3190.6,1860.9z"/>
		</g>
	</g>
	<g>
		<g>
			<path fill="#091E3B" d="M2850.3,1059.3c-11.8-11.9-23.9-23.6-36.2-35.1c-2,14.9-2.8,29.9-3.5,44.8
				C2824.1,1065.9,2837.3,1062.6,2850.3,1059.3z"/>
		</g>
	</g>
	<g>
		<g>
			<path fill="#091E3B" d="M1451.2,1578.1c37.6-53,75-102.6,109-154.5c37.2-56.9,74.9-114,105.4-174.6
				c37.8-75.2,34.7-76.8-24.6-135.4c-9.8-9.7-19.9-19.1-34.5-33c-31.3,92.2-90,160.7-146.2,231c-23,28.8-43.3,59.9-63.1,91
				c-5.4,8.5-9.2,22.6-5.9,31.2C1409.6,1481.6,1430.3,1528.6,1451.2,1578.1z"/>
		</g>
	</g>
	<g>
		<g>
			<path fill="#091E3B" d="M1566.4,2194.7c27.4,14.1,56.8,24.1,90,37.7c2-46.6-15.3-84.3-53.1-109.9c-34.4-23.3-71.7-42.2-79.7-88.7
				c-0.1-0.6-3.8-0.6-9.1-1.3c-4.6,43.7-7.6,87.3,11.7,127.5C1533.2,2174.8,1550.9,2186.7,1566.4,2194.7z"/>
		</g>
	</g>
	<g>
		<g>
			<path fill="#091E3B" d="M1062.3,1061.7c12.8,4.3,25.6,9,38.6,14.5c-2.9-16.3-5.1-31.1-7.4-45.2
				C1082.9,1041.1,1072.5,1051.3,1062.3,1061.7z"/>
		</g>
	</g>
	<g>
		<g>
			<path fill="#091E3B" d="M1153.4,1081.7c1.4,9.7,1.5,22.6,7.6,28.2c24,22.1,50.2,41.8,78,64.5c33.1-81.4,84.9-151.3,98.3-241
				c-36-8.5-70.9-14.3-104.4-16.6c-32.1,22.7-63.1,46.9-92.9,72.4C1144.4,1020.5,1148.8,1051.1,1153.4,1081.7z"/>
		</g>
	</g>
	<g>
		<g>
			<path fill="#091E3B" d="M1211.4,1280.6c42.6,71.2,78.4,146.4,117.5,219.7c18.6,34.8,37.8,69.2,56.8,103.8
				c-9.2-54.1-19.3-106.4-38.7-155.1c-28.9-72.6-58.7-146-98.4-212.9c-47.3-79.6-116.7-130.9-200.6-159.6
				c-13.3,13.9-26.2,28.2-38.9,42.7c4.3,1.6,8.6,3.1,13,4.9C1101.5,1156.6,1167.4,1207.2,1211.4,1280.6z"/>
		</g>
	</g>
	<g>
		<g>
			<path fill="#091E3B" d="M1954.7,2932.4c-90.3,0-136.4,52.1-136.4,52.1s95.8,50.4,136.4,50.4s133.8-50.4,133.8-50.4
				S2045,2932.4,1954.7,2932.4z"/>
		</g>
	</g>
	<g>
		<g>
			<path fill="#091E3B" d="M2568.7,925.7c14.8,97.5,66.9,168,99.8,248.6c27-21.9,51.5-40.7,74.5-61.1c5.9-5.2,9.5-15.1,10.7-23.4
				c5.2-35.6,9.9-71.1,14.6-106.3c-23.9-20.2-48.5-39.5-73.8-57.8C2654.5,925.7,2612.6,925.7,2568.7,925.7z"/>
		</g>
	</g>
	<g>
		<g>
			<path fill="#091E3B" d="M1886.7,1415.1c-12.3,32.3-22.2,65.8-29.8,99.5c-33.8,150-103.3,271.9-254.3,332
				c-11.6,4.6-21.8,13-32.3,20.2c-40.1,27.7-69.9,63-82.2,116.6c59.2-15.4,101.5,15,140.4,46.6c53.5,43.3,72.8,104.8,76.3,171.8
				c5.8,111,11.5,221.3,67.7,322.6c20.6,37.1,10.3,79.3-8.7,117c-8.9,17.5-19.7,34-29.3,51.2c-17.9,32.1-0.1,120.9,28.8,144
				c103.4,82.7,235.8,90.7,349.8,21.2c67.3-41.1,88.5-120.3,46.5-186.3c-39.9-62.7-41.3-123-9.2-190.2
				c20.5-42.9,32.6-91.2,40.8-138.3c8.8-51,6.7-103.9,12.7-155.5c8.4-72.4,29.6-139.3,102.3-173.5c34.4-16.2,70.7-28.2,108.5-43
				c-8.9-16.1-15.8-41-32.1-55.3c-38.4-33.8-78.2-68.3-122.9-92.3c-81.8-43.8-139.2-105.9-171.5-191.9
				c-11.8-31.3-21.4-63.5-31.2-95.5c-12.2-39.8-18.4-82.4-37-118.8c-13.6-26.4-40.8-58.6-66.2-62.9
				C1922.5,1349,1898.6,1383.9,1886.7,1415.1z M2011.9,2720.1c17-24.5,38.4-32.6,65.5-25.7c5.9,1.5,13.7,13.2,13.1,19.4
				c-2.7,29.4-19.7,48.7-48.5,56.4c-22.6,6-53.5,3.8-66,18.1c-13.2,15.2-8.9,45.5-12.4,69.2c-1.6,10.8-3.9,21.5-5.9,32.2
				c-3.4-0.1-6.9-0.2-10.3-0.3c-2-22.7-4.6-45.5-6-68.3c-2.3-39.4-11-49.2-50.5-49.1c-34.9,0.1-60.6-11.3-72.3-46.5
				c-7.4-22.1-0.2-36.9,22.9-32.4c18.5,3.6,40.4,12.5,51.5,26.4C1938.4,2776.5,1971.3,2778.5,2011.9,2720.1z"/>
		</g>
	</g>
	<g>
		<g>
			<path fill="#091E3B" d="M1551.7,1065.6c4-7.6,1.9-26.2-3.6-29.7c-49.1-31-99.6-59.7-147.8-88c-21.5,52.1-38.7,96.1-57.8,139.3
				c-17.3,39.1-37.6,76.8-54.6,116c-4.4,10.1-5.8,25.8-0.9,34.9c21,39.6,44.8,77.8,68.4,117.9c40.3-51,81.6-98.1,116.7-149.4
				C1502.5,1162.3,1526.6,1113.5,1551.7,1065.6z"/>
		</g>
	</g>
	<g>
		<g>
			<path fill="#091E3B" d="M1538.9,1783.3c14,23.2,40.5,27.6,63.6,8.6c133.9-109.4,215.4-244.1,196.5-423.7
				c-5.4-51.9-25.4-99.8-63.4-144c-47.5,133.1-136,236.4-211.6,347.8c-14.2,20.9-25.3,44-36.6,66.7c-3.9,7.9-7.8,19.4-4.8,26.4
				C1499.9,1705.2,1516.5,1746,1538.9,1783.3z"/>
		</g>
	</g>
	<g>
		<g>
			<path fill="#091E3B" d="M1561.9,2328.7c62,59.7,106.9,129.5,133.7,211.2c1.4,4.4,2.7,8.9,4.8,12.9c1.5,2.9,4.2,5.3,9.1,11.1
				c-10.2-100.9-49.6-181.2-122.6-245.3c-44.1-38.8-88.4-78.3-99.3-141.1C1485.5,2242,1519.7,2288.1,1561.9,2328.7z"/>
		</g>
	</g>
</g>
<g>
	<g>
		<g>
			<path fill="#FFFFFF" d="M959.8,830.5l-72.8,73c-4.9,5-8.5,9-10.7,12.1c-2.2,3.1-2.6,7.4-1.2,12.8c4.9,3.6,9,4.3,12.3,2.1
				c3.3-2.2,7.8-6.2,13.6-12l35.6-35.7c15.1-13.5,29.2-19.4,42.4-17.6c13.2,1.8,25.8,9.9,37.9,24.6c11.2,15.5,16.4,30,15.5,43.7
				c-0.9,13.6-9.6,29-26.1,46l-79.5,79.7l-30.4-37.1l75.6-75.7c6.5-6.5,11.2-11.7,14.2-15.6c2.9-3.9,2.8-8.8-0.6-14.6
				c-4.1-3.2-8-3.6-11.8-1.3c-3.8,2.3-9.2,7.1-16.4,14.2L923,963.5c-15.2,15.2-29.6,22.3-43.3,21.2c-13.7-1.1-26.5-8.8-38.3-23.2
				c-11.3-16.2-16.3-31.1-15.1-44.8c1.2-13.7,9.6-29,25-46l77.6-77.8L959.8,830.5z"/>
		</g>
	</g>
	<g>
		<g>
			<path fill="#FFFFFF" d="M1227.9,800.5l-106.5,76.9c-31.9,20.3-63.1,4.5-93.5-47.6c-30.4-52-29.7-90.8,2.1-116.3l103.7-74.8
				l22.9,39.4l-91.6,66.2c-6.8,5-10,11-9.8,18.1c6.2,24,16.8,44.8,31.8,62.4c5.1,5.4,11.5,6.6,19,3.6l97.2-69.9L1227.9,800.5z"/>
		</g>
	</g>
	<g>
		<g>
			<path fill="#FFFFFF" d="M1288,554.9l51.4-21.3l20,66.3l63.8-26.8l-19.7-66.6l51.5-20.9l54.5,179.9l-52.1,21.3l-20.8-69.5
				l-64,26.6l21,69.1l-51.4,21.3L1288,554.9z"/>
		</g>
	</g>
	<g>
		<g>
			<path fill="#FFFFFF" d="M1690.1,620.8l-86.2,19.6c-38.3,8.9-61.3-18.3-68.9-81.6c-8.2-63.9,7.9-100.6,48.5-110.2l70.7-15.9
				c42.3-10.4,67,15.7,74.2,78.4C1740,575,1727.2,611.6,1690.1,620.8z M1591.4,576.9c4.5,7.7,10.9,11.4,19.3,11.2l50.8-11.7
				c8.4-2.9,13.6-8.2,15.5-15.9c3.1-5.8,3.4-18.3,0.8-37.5c-2.6-19.2-6.7-30.9-12.1-35.1c-5.3-4.5-12.3-6.2-21.1-5l-39.2,8.9
				c-11.1,3.4-17.9,10.8-20.4,21.9c-2.1,5.4-2.1,16.5-0.2,33.4C1586.8,564,1589,573.9,1591.4,576.9z"/>
		</g>
	</g>
	<g>
		<g>
			<path fill="#FFFFFF" d="M1788,413.1l55.5-3l-3.2,69.2l69.1-4l3.5-69.3l55.6-2.6l-8.4,187.8l-56.2,2.8l3.5-72.4l-69.2,3.8
				l-3.1,72.1l-55.5,3L1788,413.1z"/>
		</g>
	</g>
	<g>
		<g>
			<path fill="#FFFFFF" d="M2187.8,610.2l-130.4-14.4c-37.1-6.3-49.5-38.9-37.2-97.8c12.3-58.8,38.9-87,79.5-84.6l126.8,14
				l-9.5,44.5l-112.4-12.3c-9.5-1.4-15.4,0.4-17.8,5.3l-6.2,15.4l131.8,14.7l-9.7,43.9L2072,524l-1,10.5c-0.6,8.9,2,14,8,15.3
				l118.9,13L2187.8,610.2z"/>
		</g>
	</g>
	<g>
		<g>
			<path fill="#FFFFFF" d="M2231.9,618.2l69.5-174.9l121.7,34.8c35.4,9.3,46.5,33.1,33.4,71.4l-47.3,119.2l-47.7-13.6l44.2-109
				c5.4-11,2.7-17.6-8.3-19.9l-66.3-18.9l-49.6,125.2L2231.9,618.2z"/>
		</g>
	</g>
	<g>
		<g>
			<path fill="#FFFFFF" d="M2616,761.5l-118.3-56.7c-33-18.3-33.9-53.1-2.8-104.5c31.1-51.4,65.5-69.3,103.1-53.5l115.1,55.2
				l-23.6,38.8l-102-48.8c-8.5-4.5-14.7-4.8-18.6-0.9l-11,12.4l119.6,57.5l-23.6,38.2l-118.4-57.4l-4.4,9.5
				c-3.5,8.2-2.7,13.9,2.4,17.1l107.9,51.6L2616,761.5z"/>
		</g>
	</g>
	<g>
		<g>
			<path fill="#FFFFFF" d="M2654.5,781.5l125.3-140.3l134.8,98.6c30.5,20.9,33,47,7.5,78.5l-85.4,95.7l-38.2-27.8l75.5-84.8
				c10.4-9.8,11.2-17.7,2.3-23.7L2856,763l-89.2,99.8l-38.2-27.6l89.4-100.3l-32.5-23.8L2696,811.6L2654.5,781.5z"/>
		</g>
	</g>
	<g>
		<g>
			<path fill="#FFFFFF" d="M3095,978.8l-71.5-74.3c-4.9-5-8.8-8.7-11.9-11c-3.1-2.3-7.4-2.7-12.8-1.5c-3.7,4.8-4.5,8.9-2.4,12.2
				c2.2,3.3,6.1,7.9,11.7,13.8l35,36.3c13.2,15.4,18.8,29.6,16.8,42.8c-2,13.1-10.5,25.6-25.4,37.4c-15.7,10.9-30.4,15.8-44,14.7
				c-13.6-1.2-28.8-10.2-45.5-27l-78.1-81.1l37.7-29.7l74.2,77.1c6.4,6.6,11.5,11.5,15.4,14.5c3.8,3,8.7,2.9,14.6-0.3
				c3.3-4,3.8-7.9,1.5-11.7c-2.3-3.8-6.9-9.4-13.9-16.6l-33.8-35.1c-14.9-15.5-21.7-30-20.3-43.7c1.4-13.7,9.4-26.3,24-37.8
				c16.4-11,31.4-15.7,45.1-14.2c13.7,1.5,28.8,10.1,45.4,25.9l76.3,79.2L3095,978.8z"/>
		</g>
	</g>
</g>
<g>
	<g>
		<g>
			<path fill="#FFFFFF" d="M408.8,1863.5h43l-14.6,147.1h-43.9L408.8,1863.5z"/>
		</g>
	</g>
	<g>
		<g>
			<path fill="#FFFFFF" d="M507.2,1963.2c-20.1,0.6-34.3-5.1-42.5-17.1c-8.2-12-10.7-26.9-7.4-44.8c6.4-25.9,22.6-39.1,48.4-39.5
				h69.6c12.3,2.4,22.2,8.9,29.8,19.7c7.6,10.7,10.1,28.9,7.5,54.4c-2.6,24.1-7.7,42-15.2,53.7c-8.6,13.2-20.8,20.4-36.7,21.6H456.5
				l3.6-35.5h86.2c11.3-0.8,18.4-4.9,21.4-12.5H507.2z M500.9,1927.5H575c5.5-20,0.1-31.3-16-33.8h-50.6c-10.3,0.5-16.5,4.5-18.7,12
				C487.1,1919.6,490.9,1926.9,500.9,1927.5z"/>
		</g>
	</g>
</g>
<g>
	<g>
		<g>
			<path fill="#FFFFFF" d="M3335.2,2010.8l9.4-91.6c1.9-11.6-3.2-17.6-15.4-17.8l-89.7-0.1l3.4-38.4h101.6
				c32.2,1.6,46.3,20.1,42.4,55.4l-9.4,92.6H3335.2z"/>
		</g>
	</g>
	<g>
		<g>
			<path fill="#FFFFFF" d="M3495.6,1983.9H3410c-13,0-19.2-6.4-18.7-19.3c1.6-8.1,6.4-14.4,14.4-19.1l104.2-78.6
				c3.9-3.3,10.2-4.8,18.7-4.5c11.3-0.3,17,4.6,17.1,14.7l-13.3,133.6h-39.4L3495.6,1983.9z M3502.5,1914.4l-47.2,34.9h43.6
				L3502.5,1914.4z"/>
		</g>
	</g>
</g>
<g>
	<g>
		<path fill="#FFFFFF" d="M1079.3,3223.2l-109.1-77.8c-29.9-24.2-24.5-59.7,16.2-106.6c40.7-46.9,78.7-59.2,113.7-36.7l106.1,75.7
			l-30.9,35.4l-94.1-67c-7.8-6-13.9-7.4-18.6-4.1l-13.3,10.8l110.2,78.8l-30.8,34.8l-109.1-78.5l-6.2,8.9c-5,7.7-5.2,13.6-0.7,17.8
			l99.6,70.8L1079.3,3223.2z"/>
	</g>
	<g>
		<path fill="#FFFFFF" d="M1251,3099.7l48.7,26.7l-109.2,159.7l-49.8-27.3L1251,3099.7z"/>
	</g>
	<g>
		<path fill="#FFFFFF" d="M1482.2,3260.8l-97.5-39.9c-6.6-2.7-11.8-4.5-15.7-5.3c-3.8-0.8-8,0.5-12.6,4c-1.5,6.1-0.6,10.3,2.8,12.5
			c3.4,2.2,8.9,4.9,16.7,8.1l47.7,19.5c18.7,8.9,29.7,20,33.2,33.2c3.5,13.2,0.7,28.5-8.5,45.9c-10.3,16.9-22,27.7-35.3,32.3
			c-13.3,4.6-31.1,2.5-53.7-6.3l-106.4-43.6l23.2-43.8l101.1,41.4c8.7,3.6,15.5,6,20.3,7.2c4.8,1.2,9.4-0.9,13.6-6.4
			c1.4-5.2,0.3-9.1-3.4-11.7c-3.7-2.6-10.3-5.9-19.8-9.8l-46-18.8c-20.3-8.3-32.6-19.2-36.9-32.7c-4.3-13.5-2-28.7,7-45.7
			c10.9-17.2,23-28,36.4-32.3s31.2-2.6,53.2,5.3l103.9,42.5L1482.2,3260.8z"/>
	</g>
	<g>
		<path fill="#FFFFFF" d="M1552.6,3229.6l55.3,13l-23.2,67.8l68.9,15.9l23.6-67.8l55.2,13.4l-62.7,183.9l-55.9-13.4l24.5-70.8
			l-68.9-16.2l-24,70.7l-55.3-13L1552.6,3229.6z"/>
	</g>
	<g>
		<path fill="#FFFFFF" d="M1896.3,3481.6l-90-5.9c-40.1-2.4-54.6-36.2-43.6-101.1c10.6-65.8,37.1-97.4,79.6-95l73.9,5
			c44.4,2.1,61,35.2,49.7,99.5C1958.5,3450.8,1935.3,3483.3,1896.3,3481.6z M1812.5,3409.1c2.1,9,7.4,14.5,15.7,16.7l53.2,3.3
			c9.1-0.4,15.7-4.2,19.8-11.2c4.8-4.8,8.7-17.2,11.7-36.9c3-19.8,2.5-32.6-1.6-38.4c-3.9-6-10.3-9.8-19.2-11.2l-41-2.7
			c-11.9,0.1-20.7,5.4-26.4,15.8c-3.6,4.7-6.9,15.8-9.9,33.1C1811.8,3395,1811,3405.4,1812.5,3409.1z"/>
	</g>
	<g>
		<path fill="#FFFFFF" d="M2216.1,3463.3l-133.5,13.3c-38.6,1.5-58-28.8-58.2-91.1c-0.2-62.3,20.3-96.5,61.5-102.7l130-12.8l0,47.1
			l-114.8,11.4c-8.6,0.9-14.5,4.6-17.9,11c-6.8,24.6-8.1,48.7-3.9,72.3c1.7,7.5,6.7,11.9,15,13.2l121.7-11.8L2216.1,3463.3z"/>
	</g>
	<g>
		<path fill="#FFFFFF" d="M2262.1,3259l60.1-16.3l15.5,91.9c-1.5-11.8,0.8-22.7,6.8-32.5l38.2-75.8l72.4-19.6l-45.9,102.9
			c-3.7,8-2.3,14.9,4.3,20.5l74.5,67.6l-73.2,19.8l-60.4-51.9c-8.8-6.9-14.2-15.9-16-26.9l15.9,95.2l-60.1,16.3L2262.1,3259z"/>
	</g>
	<g>
		<path fill="#FFFFFF" d="M2731.5,3294.2l-121.7,56c-35.9,14-64-8.4-84.5-67c-20.5-58.7-12.2-97.7,24.7-117l118.4-54.5l15.4,44.4
			l-104.9,48.4c-9,3.8-13.3,8.4-12.8,14.1l2.7,16.9l123.1-56.5l14.9,44l-122.3,55.7l4.7,9.8c4.2,8.2,9.2,11.3,15.1,9.4l110.9-51.2
			L2731.5,3294.2z"/>
	</g>
	<g>
		<path fill="#FFFFFF" d="M2865,2981.8l74.3,137.5c11,20,6.7,38.8-13,56.2l-121.6,82.4l-25.1-45.3l95-64c9.5-6.4,11.5-14.5,6.2-24.4
			l-0.7-0.8l-62.1,41.9c-30.4,21.6-56.4,14.5-78.2-21.4l-30.5-56.9l41.8-28.4l25.7,46.4c5.1,9.8,11.8,12.5,20.2,8.1l57.9-39.1
			l-33.4-62.9L2865,2981.8z"/>
	</g>
</g>
<g>
	<g>
		<path fill="#FFD100" d="M2968,2986.8c-3.9,0-7.8-1.5-10.7-4.5c-5.8-5.9-5.7-15.4,0.3-21.2c238.8-233,389.4-543.2,424-873.6
			c0.9-8.2,8.2-14.2,16.5-13.4c8.2,0.9,14.2,8.2,13.4,16.5c-35.3,337.4-189.1,654.1-432.9,892
			C2975.6,2985.4,2971.8,2986.8,2968,2986.8z"/>
	</g>
	<g>
		<path fill="none" stroke="#FFD100" stroke-width="5" stroke-linecap="round" stroke-miterlimit="10" d="M1191.6,3162.8"/>
	</g>
	<g>
		<path fill="#FFD100" d="M941.4,2979.5c-3.8,0-7.6-1.4-10.6-4.3c-233.4-231-383.6-536.9-422.8-861.4c-1-8.2,4.9-15.7,13.1-16.7
			c8.3-1,15.7,4.9,16.7,13.1c38.4,317.9,185.5,617.5,414.1,843.7c5.9,5.8,5.9,15.3,0.1,21.2C949.2,2978.1,945.3,2979.5,941.4,2979.5
			z"/>
	</g>
</g>
</svg>
